<svg xmlns="http://www.w3.org/2000/svg" width="30" height="30" viewBox="0 0 96 125">
  <defs>
    <style>
      .cls-maker-icon {
        fill: #ccc;
        fill-rule: evenodd;
      }
    </style>
  </defs>
  <path id="形状_1" data-name="形状 1" class="cls-maker-icon" d="M50.191,4c7.153,0.53,8.168,6.327,8.017,5.984H41.172A9.914,9.914,0,0,1,50.191,4ZM93.319,47.4c2.543,21.756-2.36,34.346-8.839,42.016-5.825,6.9-20.929,10.565-20.421,14.566a2.716,2.716,0,0,0,1.163,1.749,16.3,16.3,0,0,1,4.008,4.987c0.915,0.743,1.787,1.5,2.653,2.3a56.157,56.157,0,0,1,5.363,5.682v1.994H22.133a1.776,1.776,0,0,1-2,0,2.408,2.408,0,0,1,0-1.994,6.182,6.182,0,0,1,1-2,43.943,43.943,0,0,1,6.012-6.981,59.311,59.311,0,0,1,6.012-4.987c0.334,0,.7-0.846,1-1a72.822,72.822,0,0,1-14.029-6.982C14.078,92.782,5.858,77.218,4.1,68.827-7.463,13.795,74.555-9.231,93.319,47.4ZM44.179,24.944c-2.778.939-4.371,2.588-4.008,3.989,0.25,0.965,1.432,1.772,3.006,1.995a29.73,29.73,0,0,0,11.023,0c2.546-.513,3.833-1.174,4.008-1.995,0.308-1.437-2.246-3.3-4.008-3.989A13.6,13.6,0,0,0,44.179,24.944ZM41.172,42.9l-3.006,1.995a25.6,25.6,0,0,0-8.017,14.96,28.528,28.528,0,0,0,1,7.979,28.2,28.2,0,0,0,1,2.992,16.3,16.3,0,0,0,4.008,4.987A12.8,12.8,0,0,0,42.175,78.8a52.512,52.512,0,0,0,8.442-.273c7.57-.949,12.474-4.075,14.605-10.7A17.647,17.647,0,0,0,52.2,41.9a33.8,33.8,0,0,0-5.01,0,14.564,14.564,0,0,0-3.006,0C42.279,42.348,42.843,42.461,41.172,42.9Zm3.006,4.987c2-.873,6.013-0.491,8.016,0,2.528,1.109,4.53,1.915,6.012,4.987,3.517,3.795,1.727,12.542,0,13.963-0.736,1.83-4.962,5.075-8.017,4.987-1.919.946-6.307-.106-8.017-1-1.549-.344-4.079-2.844-5.01-3.989a25.777,25.777,0,0,1-1-2.992c-0.4-6.407-.175-8.08,1-9.973C38.142,51.669,42.11,48.441,44.179,47.883Zm0,4.987a8.311,8.311,0,0,0-4.008,4.987,8.711,8.711,0,0,0,0,4.987,11.09,11.09,0,0,0,1.7,2.294,9.593,9.593,0,0,0,4.308,2.692,7.454,7.454,0,0,0,4.008,0A9.4,9.4,0,0,0,54.2,64.838a9.671,9.671,0,0,0,2-3.989A7.807,7.807,0,0,0,53.2,53.867,8.391,8.391,0,0,0,44.179,52.87ZM40.17,104.731a20.706,20.706,0,0,0-4.008,4.987,20.167,20.167,0,0,0-1,1.994l-1,1.995h29.06l-1-1.995-2-2.992c-0.507-1.126-2.249-3.982-3.006-3.989C54.171,104.705,42.6,104.794,40.17,104.731Z"/>
</svg>
